# xmcd CD database file
#
# Track frame offsets:
#	150
#	8228
#	15706
#	24330
#	32268
#	41817
#	50577
#	53274
#	55970
#	58699
#	61447
#	64241
#	79341
#	89515
#	95540
#	100678
#	105861
#	112698
#	118462
#	123593
#	129030
#	132838
#	138469
#	152596
#	161842
#	165532
#	169191
#	173971
#	179154
#	185701
#	193398
#	198020
#	203417
#	208854
#	217858
#	223006
#	227391
#	234883
#	241622
#	244790
#	249163
#	252079
#	257048
#	259749
#	265486
#	268566
#	274343
#	281671
#	285287
#	288891
#	294589
#	301238
#	310253
#	315927
#	327649
#	332150
#	338431
#
# Disc length: 4596 seconds
#
# Revision: 0
# Processed by: cddbd v1.5.2PL0 Copyright (c) Steve Scherf et al.
# Submitted via: CDex 1.51
#
DISCID=3211f239
DTITLE=Philipp Moehrke - Jazz Piano Voicing Concepts
DYEAR=2007
DGENRE=Jazz
TTITLE0=Voicings Maj7-Dom7-120
TTITLE1=Voicings Maj7-Dom7-130
TTITLE2=Voicings Dom7-Min7-115
TTITLE3=Voicings Dom7-Min7-125
TTITLE4=Voicings Min7b5-Dim7-105
TTITLE5=Voicings Min7b5-Dim7-115
TTITLE6=Voicings Major7
TTITLE7=Voicings Dominant7
TTITLE8=Voicings Minor7
TTITLE9=Voicings Minor7b5
TTITLE10=Voicings Dim7
TTITLE11=Major251 Circle5th-120
TTITLE12=Major251 Circle5th-90
TTITLE13=Major251 Holesteps
TTITLE14=Major251 Chr.Down
TTITLE15=Major251 Chr.Up
TTITLE16=Progression Nr. 1 (Major251)
TTITLE17=Progression Nr. 2 (Major251)
TTITLE18=Progression Nr. 3 (Major251)
TTITLE19=Progression Nr. 4 (Major251)
TTITLE20=Progression Nr. 5 (Major251)
TTITLE21=Progression Nr. 6 (Major251)
TTITLE22=Minor251 Circle5th-130
TTITLE23=Minor251 Circle5th-100
TTITLE24=Minor251 Holestps1
TTITLE25=Minor251 Holespts2
TTITLE26=Minor251 Chr.Down
TTITLE27=Minor251 Chr.Up
TTITLE28=Progression Nr. 7 (Minor251)
TTITLE29=Progression Nr. 8 (Minor251)
TTITLE30=Progression Nr. 9 (Minor251)
TTITLE31=Progression Nr. 10 (Minor251)
TTITLE32=Progression Nr. 11 (Minor251)
TTITLE33=Progression Nr. 12 (Minor251)
TTITLE34=Progression Nr. 13 (Bud Powell Voicings)
TTITLE35=Progression Nr. 14 (Bud Powell Voicings)
TTITLE36=Progression Nr. 15 (3-Note Spread Voicings)
TTITLE37=Progression Nr. 16 (3-Note Spread Voicings)
TTITLE38=Progression Nr. 17 (Guide Tone Voicings)
TTITLE39=Progression Nr. 18 (Guide Tone Voicings)
TTITLE40=Progression Nr. 19 (3-Note Voicings)
TTITLE41=Progression Nr. 20 (3-Note Voicings)
TTITLE42=Progression Nr. 21 4-(Note Voicings)
TTITLE43=Progression Nr. 22 (4-Note Voicings)
TTITLE44=Progression Nr. 23 (Drop 2)
TTITLE45=Progression 24 (Drop 2)
TTITLE46=Progression 25 (Upper Structure Voicings)
TTITLE47=Progression 26 (Upper Structure Voicings)
TTITLE48=Progression Nr. 27 (Chromatic Approach)
TTITLE49=Progression 28 (Chromatic Approach)
TTITLE50=Progression Nr. 29 (Dom7sus4)
TTITLE51=Progression Nr. 30 (Easy Stride)
TTITLE52=Progression Nr. 31 (Easy Stride)
TTITLE53=Walking Bass Demo
TTITLE54=Progression Nr. 32 (Walking Bass)
TTITLE55=Progression Nr. 33 (Walking Bass)
TTITLE56=Progression Nr. 34 (Bossa Nova)
EXTD=YEAR: 2007
EXTT0=
EXTT1=
EXTT2=
EXTT3=
EXTT4=
EXTT5=
EXTT6=
EXTT7=
EXTT8=
EXTT9=
EXTT10=
EXTT11=
EXTT12=
EXTT13=
EXTT14=
EXTT15=
EXTT16=
EXTT17=
EXTT18=
EXTT19=
EXTT20=
EXTT21=
EXTT22=
EXTT23=
EXTT24=
EXTT25=
EXTT26=
EXTT27=
EXTT28=
EXTT29=
EXTT30=
EXTT31=
EXTT32=
EXTT33=
EXTT34=
EXTT35=
EXTT36=
EXTT37=
EXTT38=
EXTT39=
EXTT40=
EXTT41=
EXTT42=
EXTT43=
EXTT44=
EXTT45=
EXTT46=
EXTT47=
EXTT48=
EXTT49=
EXTT50=
EXTT51=
EXTT52=
EXTT53=
EXTT54=
EXTT55=
EXTT56=
PLAYORDER=
